<svg version="1.1" xmlns="http://www.w3.org/2000/svg" xmlns:xlink="http://www.w3.org/1999/xlink" width="532" height="355"><defs/><g><g transform="translate(-310,-166) scale(1,1)"><rect fill="#C0C0C0" stroke="none" x="511" y="351" width="116" height="24" opacity="0.2"/></g><g transform="translate(-310,-166) scale(1,1)"><rect fill="#ffffff" stroke="none" x="504" y="344" width="116" height="24"/></g><g transform="translate(-310,-166) scale(1,1)"><path fill="none" stroke="#000000" d="M 504 344 L 620 344 L 620 368 L 504 368 L 504 344 Z Z" stroke-miterlimit="10"/></g><g transform="translate(-310,-166) scale(1,1)"><g><path fill="none" stroke="none"/><text fill="#000000" stroke="none" font-family="Arial" font-size="13px" font-style="normal" font-weight="bold" text-decoration="none" x="546.5" y="363.5">Login</text></g></g><g transform="translate(-310,-166) scale(1,1)"><path fill="#ffffff" stroke="none" d="M 340.82072727272725 441.68 C 340.82072727272725 436.886167936 344.70656959767274 433 349.5 433 C 354.29343040232726 433 358.17927272727275 436.886167936 358.17927272727275 441.68 C 358.17927272727275 446.473832064 354.29343040232726 450.36 349.5 450.36 C 344.70656959767274 450.36 340.82072727272725 446.473832064 340.82072727272725 441.68 Z"/></g><g transform="translate(-310,-166) scale(1,1)"><path fill="none" stroke="#000000" d="M 340.82072727272725 441.68 C 340.82072727272725 436.886167936 344.70656959767274 433 349.5 433 C 354.29343040232726 433 358.17927272727275 436.886167936 358.17927272727275 441.68 C 358.17927272727275 446.473832064 354.29343040232726 450.36 349.5 450.36 C 344.70656959767274 450.36 340.82072727272725 446.473832064 340.82072727272725 441.68 Z" stroke-miterlimit="10"/></g><g transform="translate(-310,-166) scale(1,1)"><path fill="none" stroke="#000000" d="M 349.5 450.36 L 349.5 467.64" stroke-miterlimit="10"/></g><g transform="translate(-310,-166) scale(1,1)"><path fill="none" stroke="#000000" d="M 340.31018181818183 456.84 L 358.68981818181817 456.84" stroke-miterlimit="10"/></g><g transform="translate(-310,-166) scale(1,1)"><path fill="none" stroke="#000000" d="M 349.5 467.64 L 336.73636363636365 485" stroke-miterlimit="10"/></g><g transform="translate(-310,-166) scale(1,1)"><path fill="none" stroke="#000000" d="M 349.5 467.64 L 362.26363636363635 485" stroke-miterlimit="10"/></g><g transform="translate(-310,-166) scale(1,1)"><g><path fill="none" stroke="none"/><text fill="#000000" stroke="none" font-family="Arial" font-size="13px" font-style="normal" font-weight="bold" text-decoration="none" x="326" y="505.5">Member</text></g></g><g transform="translate(-310,-166) scale(1,1)"><rect fill="#C0C0C0" stroke="none" x="559" y="183" width="32" height="15" opacity="0.2"/></g><g transform="translate(-310,-166) scale(1,1)"><rect fill="#C0C0C0" stroke="none" x="559" y="197" width="80" height="25" opacity="0.2"/></g><g transform="translate(-310,-166) scale(1,1)"><rect fill="#ffffff" stroke="none" x="552" y="191" width="80" height="24"/></g><g transform="translate(-310,-166) scale(1,1)"><path fill="none" stroke="#000000" d="M 552 191 L 632 191 L 632 215 L 552 215 L 552 191 Z Z" stroke-miterlimit="10"/></g><g transform="translate(-310,-166) scale(1,1)"><rect fill="#ffffff" stroke="none" x="552" y="176" width="32" height="15"/></g><g transform="translate(-310,-166) scale(1,1)"><path fill="none" stroke="#000000" d="M 552 176 L 584 176 L 584 191 L 552 191 L 552 176 Z Z" stroke-miterlimit="10"/></g><g transform="translate(-310,-166) scale(1,1)"><rect fill="#ffffff" stroke="none" x="552" y="190" width="80" height="25"/></g><g transform="translate(-310,-166) scale(1,1)"><path fill="none" stroke="#000000" d="M 552 190 L 632 190 L 632 215 L 552 215 L 552 190 Z Z" stroke-miterlimit="10"/></g><g transform="translate(-310,-166) scale(1,1)"><g><path fill="none" stroke="none"/><text fill="#000000" stroke="none" font-family="Arial" font-size="13px" font-style="normal" font-weight="bold" text-decoration="none" x="559.5" y="210.5">Mobile App</text></g></g><g transform="translate(-310,-166) scale(1,1)"><path fill="#C0C0C0" stroke="none" d="M 567 384 C 567 374.6111584 619.606536 367 684.5 367 C 749.393464 367 802 374.6111584 802 384 C 802 393.3888416 749.393464 401 684.5 401 C 619.606536 401 567 393.3888416 567 384 Z" opacity="0.2"/></g><g transform="translate(-310,-166) scale(1,1)"><path fill="#ffffff" stroke="none" d="M 560 377 C 560 367.6111584 612.606536 360 677.5 360 C 742.393464 360 795 367.6111584 795 377 C 795 386.3888416 742.393464 394 677.5 394 C 612.606536 394 560 386.3888416 560 377 Z"/></g><g transform="translate(-310,-166) scale(1,1)"><path fill="none" stroke="#000000" d="M 560 377 C 560 367.6111584 612.606536 360 677.5 360 C 742.393464 360 795 367.6111584 795 377 C 795 386.3888416 742.393464 394 677.5 394 C 612.606536 394 560 386.3888416 560 377 Z" stroke-miterlimit="10"/></g><g transform="translate(-310,-166) scale(1,1)"><g><path fill="none" stroke="none"/><text fill="#000000" stroke="none" font-family="Arial" font-size="13px" font-style="normal" font-weight="bold" text-decoration="none" x="603.5" y="384">Enter Member ID Number</text></g></g><g transform="translate(-310,-166) scale(1,1)"><path fill="#C0C0C0" stroke="none" d="M 647 464 C 647 454.6111584 689.9806592 447 743 447 C 796.0193408 447 839 454.6111584 839 464 C 839 473.3888416 796.0193408 481 743 481 C 689.9806592 481 647 473.3888416 647 464 Z" opacity="0.2"/></g><g transform="translate(-310,-166) scale(1,1)"><path fill="#ffffff" stroke="none" d="M 640 457 C 640 447.6111584 682.9806592 440 736 440 C 789.0193408 440 832 447.6111584 832 457 C 832 466.3888416 789.0193408 474 736 474 C 682.9806592 474 640 466.3888416 640 457 Z"/></g><g transform="translate(-310,-166) scale(1,1)"><path fill="none" stroke="#000000" d="M 640 457 C 640 447.6111584 682.9806592 440 736 440 C 789.0193408 440 832 447.6111584 832 457 C 832 466.3888416 789.0193408 474 736 474 C 682.9806592 474 640 466.3888416 640 457 Z" stroke-miterlimit="10"/></g><g transform="translate(-310,-166) scale(1,1)"><g><path fill="none" stroke="none"/><text fill="#000000" stroke="none" font-family="Arial" font-size="13px" font-style="normal" font-weight="bold" text-decoration="none" x="676" y="464">Authenticate Identity</text></g></g><g transform="translate(-310,-166) scale(1,1)"><path fill="none" stroke="#000000" d="M 380 462 L 614 395" stroke-miterlimit="10"/></g><g transform="translate(-310,-166) scale(1,1)"><g><path fill="none" stroke="none"/><text fill="#000000" stroke="none" font-family="Arial" font-size="13px" font-style="normal" font-weight="normal" text-decoration="none" x="439" y="420">+Types on Screen</text></g></g><g transform="translate(-310,-166) scale(1,1)"><path fill="none" stroke="#000000" d="M 380 470 L 639 461" stroke-miterlimit="10"/></g><g transform="translate(-310,-166) scale(1,1)"><g><path fill="none" stroke="none"/><text fill="#000000" stroke="none" font-family="Arial" font-size="13px" font-style="normal" font-weight="normal" text-decoration="none" x="438" y="457">+Thumbs Scans on Pad</text></g></g></g></svg>