<svg version="1.1" xmlns="http://www.w3.org/2000/svg" xmlns:xlink="http://www.w3.org/1999/xlink" width="422" height="507"><defs/><g><g transform="translate(-30,-70) scale(1,1)"><path fill="#C0C0C0" stroke="none" d="M 111 115.5 C 111 99.7598832 170.7699792 87 244.5 87 C 318.23002080000003 87 378 99.7598832 378 115.5 C 378 131.2401168 318.23002080000003 144 244.5 144 C 170.7699792 144 111 131.2401168 111 115.5 Z" opacity="0.2"/></g><g transform="translate(-30,-70) scale(1,1)"><path fill="#ffffff" stroke="none" d="M 104 108.5 C 104 92.7598832 163.7699792 80 237.5 80 C 311.23002080000003 80 371 92.7598832 371 108.5 C 371 124.2401168 311.23002080000003 137 237.5 137 C 163.7699792 137 104 124.2401168 104 108.5 Z"/></g><g transform="translate(-30,-70) scale(1,1)"><path fill="none" stroke="#000000" d="M 104 108.5 C 104 92.7598832 163.7699792 80 237.5 80 C 311.23002080000003 80 371 92.7598832 371 108.5 C 371 124.2401168 311.23002080000003 137 237.5 137 C 163.7699792 137 104 124.2401168 104 108.5 Z" stroke-miterlimit="10"/></g><g transform="translate(-30,-70) scale(1,1)"><g><path fill="none" stroke="none"/><text fill="#000000" stroke="none" font-family="Arial" font-size="13px" font-style="normal" font-weight="bold" text-decoration="none" x="152" y="115.5">Business Deal and Exchange</text></g></g><g transform="translate(-30,-70) scale(1,1)"><path fill="#ffffff" stroke="none" d="M 71.82072727272727 145.68 C 71.82072727272727 140.886167936 75.70656959767273 137 80.5 137 C 85.29343040232727 137 89.17927272727273 140.886167936 89.17927272727273 145.68 C 89.17927272727273 150.47383206400002 85.29343040232727 154.36 80.5 154.36 C 75.70656959767273 154.36 71.82072727272727 150.47383206400002 71.82072727272727 145.68 Z"/></g><g transform="translate(-30,-70) scale(1,1)"><path fill="none" stroke="#000000" d="M 71.82072727272727 145.68 C 71.82072727272727 140.886167936 75.70656959767273 137 80.5 137 C 85.29343040232727 137 89.17927272727273 140.886167936 89.17927272727273 145.68 C 89.17927272727273 150.47383206400002 85.29343040232727 154.36 80.5 154.36 C 75.70656959767273 154.36 71.82072727272727 150.47383206400002 71.82072727272727 145.68 Z" stroke-miterlimit="10"/></g><g transform="translate(-30,-70) scale(1,1)"><path fill="none" stroke="#000000" d="M 80.5 154.36 L 80.5 171.64" stroke-miterlimit="10"/></g><g transform="translate(-30,-70) scale(1,1)"><path fill="none" stroke="#000000" d="M 71.31018181818182 160.84 L 89.68981818181818 160.84" stroke-miterlimit="10"/></g><g transform="translate(-30,-70) scale(1,1)"><path fill="none" stroke="#000000" d="M 80.5 171.64 L 67.73636363636363 189" stroke-miterlimit="10"/></g><g transform="translate(-30,-70) scale(1,1)"><path fill="none" stroke="#000000" d="M 80.5 171.64 L 93.26363636363637 189" stroke-miterlimit="10"/></g><g transform="translate(-30,-70) scale(1,1)"><g><path fill="none" stroke="none"/><text fill="#000000" stroke="none" font-family="Arial" font-size="13px" font-style="normal" font-weight="bold" text-decoration="none" x="63.5" y="209.5">Buyer</text></g></g><g transform="translate(-30,-70) scale(1,1)"><path fill="none" stroke="#000000" d="M 167 138 L 106 164" stroke-miterlimit="10"/></g><g transform="translate(-30,-70) scale(1,1)"><path fill="#ffffff" stroke="none" d="M 391.82072727272725 145.68 C 391.82072727272725 140.886167936 395.70656959767274 137 400.5 137 C 405.29343040232726 137 409.17927272727275 140.886167936 409.17927272727275 145.68 C 409.17927272727275 150.47383206400002 405.29343040232726 154.36 400.5 154.36 C 395.70656959767274 154.36 391.82072727272725 150.47383206400002 391.82072727272725 145.68 Z"/></g><g transform="translate(-30,-70) scale(1,1)"><path fill="none" stroke="#000000" d="M 391.82072727272725 145.68 C 391.82072727272725 140.886167936 395.70656959767274 137 400.5 137 C 405.29343040232726 137 409.17927272727275 140.886167936 409.17927272727275 145.68 C 409.17927272727275 150.47383206400002 405.29343040232726 154.36 400.5 154.36 C 395.70656959767274 154.36 391.82072727272725 150.47383206400002 391.82072727272725 145.68 Z" stroke-miterlimit="10"/></g><g transform="translate(-30,-70) scale(1,1)"><path fill="none" stroke="#000000" d="M 400.5 154.36 L 400.5 171.64" stroke-miterlimit="10"/></g><g transform="translate(-30,-70) scale(1,1)"><path fill="none" stroke="#000000" d="M 391.31018181818183 160.84 L 409.68981818181817 160.84" stroke-miterlimit="10"/></g><g transform="translate(-30,-70) scale(1,1)"><path fill="none" stroke="#000000" d="M 400.5 171.64 L 387.73636363636365 189" stroke-miterlimit="10"/></g><g transform="translate(-30,-70) scale(1,1)"><path fill="none" stroke="#000000" d="M 400.5 171.64 L 413.26363636363635 189" stroke-miterlimit="10"/></g><g transform="translate(-30,-70) scale(1,1)"><g><path fill="none" stroke="none"/><text fill="#000000" stroke="none" font-family="Arial" font-size="13px" font-style="normal" font-weight="bold" text-decoration="none" x="384" y="209.5">Seller</text></g></g><g transform="translate(-30,-70) scale(1,1)"><path fill="none" stroke="#000000" d="M 310 138 L 375 165" stroke-miterlimit="10"/></g><g transform="translate(-30,-70) scale(1,1)"><path fill="#C0C0C0" stroke="none" d="M 92 259 C 92 243.5360256 156.2471312 231 235.5 231 C 314.7528688 231 379 243.5360256 379 259 C 379 274.4639744 314.7528688 287 235.5 287 C 156.2471312 287 92 274.4639744 92 259 Z" opacity="0.2"/></g><g transform="translate(-30,-70) scale(1,1)"><path fill="#ffffff" stroke="none" d="M 85 252 C 85 236.5360256 149.2471312 224 228.5 224 C 307.7528688 224 372 236.5360256 372 252 C 372 267.4639744 307.7528688 280 228.5 280 C 149.2471312 280 85 267.4639744 85 252 Z"/></g><g transform="translate(-30,-70) scale(1,1)"><path fill="none" stroke="#000000" d="M 85 252 C 85 236.5360256 149.2471312 224 228.5 224 C 307.7528688 224 372 236.5360256 372 252 C 372 267.4639744 307.7528688 280 228.5 280 C 149.2471312 280 85 267.4639744 85 252 Z" stroke-miterlimit="10"/></g><g transform="translate(-30,-70) scale(1,1)"><g><path fill="none" stroke="none"/><text fill="#000000" stroke="none" font-family="Arial" font-size="13px" font-style="normal" font-weight="bold" text-decoration="none" x="138" y="259">Legal Contract and Transaction</text></g></g><g transform="translate(-30,-70) scale(1,1)"><path fill="#C0C0C0" stroke="none" d="M 103 435 C 103 419.5360256 165.9039856 407 243.5 407 C 321.0960144 407 384 419.5360256 384 435 C 384 450.4639744 321.0960144 463 243.5 463 C 165.9039856 463 103 450.4639744 103 435 Z" opacity="0.2"/></g><g transform="translate(-30,-70) scale(1,1)"><path fill="#ffffff" stroke="none" d="M 96 428 C 96 412.5360256 158.9039856 400 236.5 400 C 314.0960144 400 377 412.5360256 377 428 C 377 443.4639744 314.0960144 456 236.5 456 C 158.9039856 456 96 443.4639744 96 428 Z"/></g><g transform="translate(-30,-70) scale(1,1)"><path fill="none" stroke="#000000" d="M 96 428 C 96 412.5360256 158.9039856 400 236.5 400 C 314.0960144 400 377 412.5360256 377 428 C 377 443.4639744 314.0960144 456 236.5 456 C 158.9039856 456 96 443.4639744 96 428 Z" stroke-miterlimit="10"/></g><g transform="translate(-30,-70) scale(1,1)"><g><path fill="none" stroke="none"/><text fill="#000000" stroke="none" font-family="Arial" font-size="13px" font-style="normal" font-weight="bold" text-decoration="none" x="148" y="435">Technical Trigger and Process</text></g></g><g transform="translate(-30,-70) scale(1,1)"><path fill="#ffffff" stroke="none" d="M 67.82072727272727 305.68 C 67.82072727272727 300.886167936 71.70656959767273 297 76.5 297 C 81.29343040232727 297 85.17927272727273 300.886167936 85.17927272727273 305.68 C 85.17927272727273 310.473832064 81.29343040232727 314.36 76.5 314.36 C 71.70656959767273 314.36 67.82072727272727 310.473832064 67.82072727272727 305.68 Z"/></g><g transform="translate(-30,-70) scale(1,1)"><path fill="none" stroke="#000000" d="M 67.82072727272727 305.68 C 67.82072727272727 300.886167936 71.70656959767273 297 76.5 297 C 81.29343040232727 297 85.17927272727273 300.886167936 85.17927272727273 305.68 C 85.17927272727273 310.473832064 81.29343040232727 314.36 76.5 314.36 C 71.70656959767273 314.36 67.82072727272727 310.473832064 67.82072727272727 305.68 Z" stroke-miterlimit="10"/></g><g transform="translate(-30,-70) scale(1,1)"><path fill="none" stroke="#000000" d="M 76.5 314.36 L 76.5 331.64" stroke-miterlimit="10"/></g><g transform="translate(-30,-70) scale(1,1)"><path fill="none" stroke="#000000" d="M 67.31018181818182 320.84 L 85.68981818181818 320.84" stroke-miterlimit="10"/></g><g transform="translate(-30,-70) scale(1,1)"><path fill="none" stroke="#000000" d="M 76.5 331.64 L 63.736363636363635 349" stroke-miterlimit="10"/></g><g transform="translate(-30,-70) scale(1,1)"><path fill="none" stroke="#000000" d="M 76.5 331.64 L 89.26363636363637 349" stroke-miterlimit="10"/></g><g transform="translate(-30,-70) scale(1,1)"><g><path fill="none" stroke="none"/><text fill="#000000" stroke="none" font-family="Arial" font-size="13px" font-style="normal" font-weight="bold" text-decoration="none" x="47" y="369.5">Consumer</text></g></g><g transform="translate(-30,-70) scale(1,1)"><path fill="none" stroke="#000000" d="M 114 314 L 175 281" stroke-miterlimit="10"/></g><g transform="translate(-30,-70) scale(1,1)"><path fill="#ffffff" stroke="none" d="M 400.32072727272725 305.68 C 400.32072727272725 300.886167936 404.20656959767274 297 409 297 C 413.79343040232726 297 417.67927272727275 300.886167936 417.67927272727275 305.68 C 417.67927272727275 310.473832064 413.79343040232726 314.36 409 314.36 C 404.20656959767274 314.36 400.32072727272725 310.473832064 400.32072727272725 305.68 Z"/></g><g transform="translate(-30,-70) scale(1,1)"><path fill="none" stroke="#000000" d="M 400.32072727272725 305.68 C 400.32072727272725 300.886167936 404.20656959767274 297 409 297 C 413.79343040232726 297 417.67927272727275 300.886167936 417.67927272727275 305.68 C 417.67927272727275 310.473832064 413.79343040232726 314.36 409 314.36 C 404.20656959767274 314.36 400.32072727272725 310.473832064 400.32072727272725 305.68 Z" stroke-miterlimit="10"/></g><g transform="translate(-30,-70) scale(1,1)"><path fill="none" stroke="#000000" d="M 409 314.36 L 409 331.64" stroke-miterlimit="10"/></g><g transform="translate(-30,-70) scale(1,1)"><path fill="none" stroke="#000000" d="M 399.81018181818183 320.84 L 418.18981818181817 320.84" stroke-miterlimit="10"/></g><g transform="translate(-30,-70) scale(1,1)"><path fill="none" stroke="#000000" d="M 409 331.64 L 396.23636363636365 349" stroke-miterlimit="10"/></g><g transform="translate(-30,-70) scale(1,1)"><path fill="none" stroke="#000000" d="M 409 331.64 L 421.76363636363635 349" stroke-miterlimit="10"/></g><g transform="translate(-30,-70) scale(1,1)"><g><path fill="none" stroke="none"/><text fill="#000000" stroke="none" font-family="Arial" font-size="13px" font-style="normal" font-weight="bold" text-decoration="none" x="382" y="369.5">Merchant</text></g></g><g transform="translate(-30,-70) scale(1,1)"><path fill="#ffffff" stroke="none" d="M 71.82072727272727 489.68 C 71.82072727272727 484.886167936 75.70656959767273 481 80.5 481 C 85.29343040232727 481 89.17927272727273 484.886167936 89.17927272727273 489.68 C 89.17927272727273 494.473832064 85.29343040232727 498.36 80.5 498.36 C 75.70656959767273 498.36 71.82072727272727 494.473832064 71.82072727272727 489.68 Z"/></g><g transform="translate(-30,-70) scale(1,1)"><path fill="none" stroke="#000000" d="M 71.82072727272727 489.68 C 71.82072727272727 484.886167936 75.70656959767273 481 80.5 481 C 85.29343040232727 481 89.17927272727273 484.886167936 89.17927272727273 489.68 C 89.17927272727273 494.473832064 85.29343040232727 498.36 80.5 498.36 C 75.70656959767273 498.36 71.82072727272727 494.473832064 71.82072727272727 489.68 Z" stroke-miterlimit="10"/></g><g transform="translate(-30,-70) scale(1,1)"><path fill="none" stroke="#000000" d="M 80.5 498.36 L 80.5 515.64" stroke-miterlimit="10"/></g><g transform="translate(-30,-70) scale(1,1)"><path fill="none" stroke="#000000" d="M 71.31018181818182 504.84 L 89.68981818181818 504.84" stroke-miterlimit="10"/></g><g transform="translate(-30,-70) scale(1,1)"><path fill="none" stroke="#000000" d="M 80.5 515.64 L 67.73636363636363 533" stroke-miterlimit="10"/></g><g transform="translate(-30,-70) scale(1,1)"><path fill="none" stroke="#000000" d="M 80.5 515.64 L 93.26363636363637 533" stroke-miterlimit="10"/></g><g transform="translate(-30,-70) scale(1,1)"><g><path fill="none" stroke="none"/><text fill="#000000" stroke="none" font-family="Arial" font-size="13px" font-style="normal" font-weight="bold" text-decoration="none" x="64" y="553.5">Client</text></g></g><g transform="translate(-30,-70) scale(1,1)"><path fill="#ffffff" stroke="none" d="M 391.82072727272725 497.68 C 391.82072727272725 492.886167936 395.70656959767274 489 400.5 489 C 405.29343040232726 489 409.17927272727275 492.886167936 409.17927272727275 497.68 C 409.17927272727275 502.473832064 405.29343040232726 506.36 400.5 506.36 C 395.70656959767274 506.36 391.82072727272725 502.473832064 391.82072727272725 497.68 Z"/></g><g transform="translate(-30,-70) scale(1,1)"><path fill="none" stroke="#000000" d="M 391.82072727272725 497.68 C 391.82072727272725 492.886167936 395.70656959767274 489 400.5 489 C 405.29343040232726 489 409.17927272727275 492.886167936 409.17927272727275 497.68 C 409.17927272727275 502.473832064 405.29343040232726 506.36 400.5 506.36 C 395.70656959767274 506.36 391.82072727272725 502.473832064 391.82072727272725 497.68 Z" stroke-miterlimit="10"/></g><g transform="translate(-30,-70) scale(1,1)"><path fill="none" stroke="#000000" d="M 400.5 506.36 L 400.5 523.64" stroke-miterlimit="10"/></g><g transform="translate(-30,-70) scale(1,1)"><path fill="none" stroke="#000000" d="M 391.31018181818183 512.84 L 409.68981818181817 512.84" stroke-miterlimit="10"/></g><g transform="translate(-30,-70) scale(1,1)"><path fill="none" stroke="#000000" d="M 400.5 523.64 L 387.73636363636365 541" stroke-miterlimit="10"/></g><g transform="translate(-30,-70) scale(1,1)"><path fill="none" stroke="#000000" d="M 400.5 523.64 L 413.26363636363635 541" stroke-miterlimit="10"/></g><g transform="translate(-30,-70) scale(1,1)"><g><path fill="none" stroke="none"/><text fill="#000000" stroke="none" font-family="Arial" font-size="13px" font-style="normal" font-weight="bold" text-decoration="none" x="381.5" y="561.5">Server</text></g></g><g transform="translate(-30,-70) scale(1,1)"><path fill="none" stroke="#000000" d="M 106 504 L 186 457" stroke-miterlimit="10"/></g><g transform="translate(-30,-70) scale(1,1)"><path fill="none" stroke="#000000" d="M 375 512 L 284 457" stroke-miterlimit="10"/></g><g transform="translate(-30,-70) scale(1,1)"><path fill="none" stroke="#000000" d="M 375 319 L 291 281" stroke-miterlimit="10"/></g></g></svg>